HIERARCHY
ROOT newVegas:Hips
{
	OFFSET 0.000000 96.479958 0.000000
	CHANNELS 6 Xposition Yposition Zposition Xrotation Yrotation Zrotation
	JOINT newVegas:Pelvis
	{
		OFFSET 0.000000 0.000000 0.000000
		CHANNELS 3 Xrotation Yrotation Zrotation
		JOINT newVegas:LeftUpLeg
		{
			OFFSET 18.735201 -5.666702 -4.541200
			CHANNELS 3 Xrotation Yrotation Zrotation
			JOINT newVegas:LeftLeg
			{
				OFFSET -0.021200 -31.938179 0.493100
				CHANNELS 3 Xrotation Yrotation Zrotation
				JOINT newVegas:LeftFoot
				{
					OFFSET 0.021200 -31.938179 -4.336299
					CHANNELS 3 Xrotation Yrotation Zrotation
					JOINT newVegas:LeftToeBase
					{
						OFFSET 0.943001 -26.722000 15.023500
						CHANNELS 3 Xrotation Yrotation Zrotation
						End Site
						{
							OFFSET 0.000000 30.670183 0.000000
						}
					}
				}
				JOINT newVegas:Left_PantLeg
				{
					OFFSET 0.663870 -9.044666 -1.108900
					CHANNELS 3 Xrotation Yrotation Zrotation
					End Site
					{
						OFFSET 1.415995 20.635357 0.000000
					}
				}
			}
		}
		JOINT newVegas:RightUpLeg
		{
			OFFSET -18.735201 -5.666702 -4.541200
			CHANNELS 3 Xrotation Yrotation Zrotation
			JOINT newVegas:RightLeg
			{
				OFFSET 0.018946 -31.938133 0.493100
				CHANNELS 3 Xrotation Yrotation Zrotation
				JOINT newVegas:RightFoot
				{
					OFFSET -0.018946 -31.938126 -4.336299
					CHANNELS 3 Xrotation Yrotation Zrotation
					JOINT newVegas:RightToeBase
					{
						OFFSET -0.943001 -26.722004 15.023500
						CHANNELS 3 Xrotation Yrotation Zrotation
						End Site
						{
							OFFSET 0.000000 30.670187 0.000000
						}
					}
				}
				JOINT newVegas:Right_PantLeg
				{
					OFFSET -0.661674 -9.044716 -1.108900
					CHANNELS 3 Xrotation Yrotation Zrotation
					End Site
					{
						OFFSET -1.415958 20.635269 0.000000
					}
				}
			}
		}
	}
	JOINT newVegas:Spine
	{
		OFFSET 0.000000 10.199997 -0.299500
		CHANNELS 3 Xrotation Yrotation Zrotation
		JOINT newVegas:Spine1
		{
			OFFSET 0.000000 11.900002 -1.516600
			CHANNELS 3 Xrotation Yrotation Zrotation
			JOINT newVegas:Spine2
			{
				OFFSET 0.000000 13.600006 -2.842500
				CHANNELS 3 Xrotation Yrotation Zrotation
				JOINT newVegas:Neck
				{
					OFFSET 0.000000 9.624100 -2.890100
					CHANNELS 3 Xrotation Yrotation Zrotation
					JOINT newVegas:Head
					{
						OFFSET 0.000000 14.068802 -1.351900
						CHANNELS 3 Xrotation Yrotation Zrotation
						JOINT newVegas:Hair_Back
						{
							OFFSET 0.000000 3.231903 -17.524799
							CHANNELS 3 Xrotation Yrotation Zrotation
							End Site
							{
								OFFSET 0.000000 19.849884 0.000000
							}
						}
						JOINT newVegas:Hair_Front
						{
							OFFSET 0.000000 31.260406 4.573800
							CHANNELS 3 Xrotation Yrotation Zrotation
							JOINT newVegas:Hair_Front1
							{
								OFFSET 0.000000 2.284103 11.993300
								CHANNELS 3 Xrotation Yrotation Zrotation
								JOINT newVegas:Hair_Front2
								{
									OFFSET 0.000000 2.284103 11.993300
									CHANNELS 3 Xrotation Yrotation Zrotation
									End Site
									{
										OFFSET 0.000000 12.208862 0.000000
									}
								}
							}
						}
						JOINT newVegas:Jowel
						{
							OFFSET 0.000000 -7.458206 6.864100
							CHANNELS 3 Xrotation Yrotation Zrotation
							End Site
							{
								OFFSET 0.000000 19.849884 0.000000
							}
						}
					}
				}
				JOINT newVegas:LeftShoulder
				{
					OFFSET 15.263000 10.923401 -0.547700
					CHANNELS 3 Xrotation Yrotation Zrotation
					JOINT newVegas:LeftArm
					{
						OFFSET 25.438599 -2.830597 -13.032500
						CHANNELS 3 Xrotation Yrotation Zrotation
						JOINT newVegas:LeftForeArm
						{
							OFFSET 29.960503 0.000000 0.000000
							CHANNELS 3 Xrotation Yrotation Zrotation
							JOINT newVegas:LeftHand
							{
								OFFSET 27.849251 0.000000 0.000000
								CHANNELS 3 Xrotation Yrotation Zrotation
								JOINT newVegas:LeftHandThumb1
								{
									OFFSET 4.487587 -3.305161 6.305391
									CHANNELS 3 Xrotation Yrotation Zrotation
									JOINT newVegas:LeftHandThumb2
									{
										OFFSET 5.480453 -3.164139 3.164143
										CHANNELS 3 Xrotation Yrotation Zrotation
										JOINT newVegas:LeftHandThumb3
										{
											OFFSET 5.159721 -2.978973 2.978967
											CHANNELS 3 Xrotation Yrotation Zrotation
											End Site
											{
												OFFSET 2.494507 5.926697 1.738678
											}
										}
									}
								}
								JOINT newVegas:LeftHandIndex1
								{
									OFFSET 18.578728 -0.527832 5.208049
									CHANNELS 3 Xrotation Yrotation Zrotation
									JOINT newVegas:LeftHandIndex2
									{
										OFFSET 3.192009 0.000000 0.000000
										CHANNELS 3 Xrotation Yrotation Zrotation
										JOINT newVegas:LeftHandIndex3
										{
											OFFSET 3.835129 0.000000 0.000000
											CHANNELS 3 Xrotation Yrotation Zrotation
											End Site
											{
												OFFSET -0.034599 3.816971 0.371180
											}
										}
									}
								}
								JOINT newVegas:LeftHandMiddle1
								{
									OFFSET 18.476105 0.000000 0.000000
									CHANNELS 3 Xrotation Yrotation Zrotation
									JOINT newVegas:LeftHandMiddle2
									{
										OFFSET 3.324875 0.000000 0.000000
										CHANNELS 3 Xrotation Yrotation Zrotation
										JOINT newVegas:LeftHandMiddle3
										{
											OFFSET 4.596550 0.000000 0.000000
											CHANNELS 3 Xrotation Yrotation Zrotation
											End Site
											{
												OFFSET 0.057701 4.578827 0.399218
											}
										}
									}
								}
								JOINT newVegas:LeftHandRing1
								{
									OFFSET 17.732719 0.121887 -4.201567
									CHANNELS 3 Xrotation Yrotation Zrotation
									JOINT newVegas:LeftHandRing2
									{
										OFFSET 2.733170 0.000000 0.000000
										CHANNELS 3 Xrotation Yrotation Zrotation
										JOINT newVegas:LeftHandRing3
										{
											OFFSET 3.178268 0.000000 0.000000
											CHANNELS 3 Xrotation Yrotation Zrotation
											End Site
											{
												OFFSET 0.119102 3.170624 0.185394
											}
										}
									}
								}
								JOINT newVegas:LeftHandPinky1
								{
									OFFSET 15.989624 -0.606689 -7.535461
									CHANNELS 3 Xrotation Yrotation Zrotation
									JOINT newVegas:LeftHandPinky2
									{
										OFFSET 2.538986 0.000000 0.000000
										CHANNELS 3 Xrotation Yrotation Zrotation
										JOINT newVegas:LeftHandPinky3
										{
											OFFSET 2.593102 0.000000 0.000000
											CHANNELS 3 Xrotation Yrotation Zrotation
											End Site
											{
												OFFSET -0.150902 2.584198 0.152708
											}
										}
									}
								}
							}
							JOINT newVegas:Left_Sleeve
							{
								OFFSET 0.267448 -0.649796 0.577675
								CHANNELS 3 Xrotation Yrotation Zrotation
								End Site
								{
									OFFSET 0.000000 15.991241 0.000000
								}
							}
							JOINT newVegas:Left_CapeC
							{
								OFFSET 15.715958 -8.608795 -6.935905
								CHANNELS 3 Xrotation Yrotation Zrotation
								JOINT newVegas:Left_CapeC1
								{
									OFFSET 0.000000 -8.688499 0.000000
									CHANNELS 3 Xrotation Yrotation Zrotation
									End Site
									{
										OFFSET 0.000000 8.688499 0.000000
									}
								}
							}
						}
						JOINT newVegas:Left_CapeB
						{
							OFFSET 26.118385 -8.608795 -7.079235
							CHANNELS 3 Xrotation Yrotation Zrotation
							JOINT newVegas:Left_CapeB1
							{
								OFFSET 0.000000 -8.688499 0.000000
								CHANNELS 3 Xrotation Yrotation Zrotation
								End Site
								{
									OFFSET 0.000000 8.688499 0.000000
								}
							}
						}
						JOINT newVegas:Left_CapeA
						{
							OFFSET 5.115639 -8.608795 -10.395809
							CHANNELS 3 Xrotation Yrotation Zrotation
							JOINT newVegas:Left_CapeA1
							{
								OFFSET 0.000000 -8.688499 0.000000
								CHANNELS 3 Xrotation Yrotation Zrotation
								End Site
								{
									OFFSET 0.000000 8.688499 0.000000
								}
							}
						}
					}
				}
				JOINT newVegas:RightShoulder
				{
					OFFSET -15.263000 10.923401 -0.547700
					CHANNELS 3 Xrotation Yrotation Zrotation
					JOINT newVegas:RightArm
					{
						OFFSET -25.438599 -2.830597 -13.032500
						CHANNELS 3 Xrotation Yrotation Zrotation
						JOINT newVegas:RightForeArm
						{
							OFFSET -29.960503 0.000000 0.000000
							CHANNELS 3 Xrotation Yrotation Zrotation
							JOINT newVegas:RightHand
							{
								OFFSET -27.849251 0.000000 0.000000
								CHANNELS 3 Xrotation Yrotation Zrotation
								JOINT newVegas:RightHandThumb1
								{
									OFFSET -4.487587 -3.305161 6.305391
									CHANNELS 3 Xrotation Yrotation Zrotation
									JOINT newVegas:RightHandThumb2
									{
										OFFSET -5.480453 -3.164139 3.164143
										CHANNELS 3 Xrotation Yrotation Zrotation
										JOINT newVegas:RightHandThumb3
										{
											OFFSET -5.159721 -2.978973 2.978967
											CHANNELS 3 Xrotation Yrotation Zrotation
											End Site
											{
												OFFSET -2.494507 5.926697 1.738678
											}
										}
									}
								}
								JOINT newVegas:RightHandIndex1
								{
									OFFSET -18.578728 -0.527832 5.208049
									CHANNELS 3 Xrotation Yrotation Zrotation
									JOINT newVegas:RightHandIndex2
									{
										OFFSET -3.192009 0.000000 0.000000
										CHANNELS 3 Xrotation Yrotation Zrotation
										JOINT newVegas:RightHandIndex3
										{
											OFFSET -3.835129 0.000000 0.000000
											CHANNELS 3 Xrotation Yrotation Zrotation
											End Site
											{
												OFFSET 0.034599 3.816971 0.371180
											}
										}
									}
								}
								JOINT newVegas:RightHandMiddle1
								{
									OFFSET -18.476105 0.000000 0.000000
									CHANNELS 3 Xrotation Yrotation Zrotation
									JOINT newVegas:RightHandMiddle2
									{
										OFFSET -3.324875 0.000000 0.000000
										CHANNELS 3 Xrotation Yrotation Zrotation
										JOINT newVegas:RightHandMiddle3
										{
											OFFSET -4.596550 0.000000 0.000000
											CHANNELS 3 Xrotation Yrotation Zrotation
											End Site
											{
												OFFSET -0.057701 4.578827 0.399218
											}
										}
									}
								}
								JOINT newVegas:RightHandRing1
								{
									OFFSET -17.732719 0.121887 -4.201567
									CHANNELS 3 Xrotation Yrotation Zrotation
									JOINT newVegas:RightHandRing2
									{
										OFFSET -2.733170 0.000000 0.000000
										CHANNELS 3 Xrotation Yrotation Zrotation
										JOINT newVegas:RightHandRing3
										{
											OFFSET -3.178268 0.000000 0.000000
											CHANNELS 3 Xrotation Yrotation Zrotation
											End Site
											{
												OFFSET -0.119102 3.170624 0.185394
											}
										}
									}
								}
								JOINT newVegas:RightHandPinky1
								{
									OFFSET -15.989624 -0.606689 -7.535461
									CHANNELS 3 Xrotation Yrotation Zrotation
									JOINT newVegas:RightHandPinky2
									{
										OFFSET -2.538986 0.000000 0.000000
										CHANNELS 3 Xrotation Yrotation Zrotation
										JOINT newVegas:RightHandPinky3
										{
											OFFSET -2.593102 0.000000 0.000000
											CHANNELS 3 Xrotation Yrotation Zrotation
											End Site
											{
												OFFSET 0.150902 2.584198 0.152708
											}
										}
									}
								}
							}
							JOINT newVegas:Right_CapeC
							{
								OFFSET -15.715958 -8.608795 -6.935905
								CHANNELS 3 Xrotation Yrotation Zrotation
								JOINT newVegas:Right_CapeC1
								{
									OFFSET 0.000000 -8.688499 0.000000
									CHANNELS 3 Xrotation Yrotation Zrotation
									End Site
									{
										OFFSET 0.000000 8.688499 0.000000
									}
								}
							}
							JOINT newVegas:Right_Sleeve
							{
								OFFSET -0.267448 -0.649994 0.577675
								CHANNELS 3 Xrotation Yrotation Zrotation
								End Site
								{
									OFFSET 0.000000 15.991302 0.000000
								}
							}
						}
						JOINT newVegas:Right_CapeA
						{
							OFFSET -5.115540 -8.608795 -10.395824
							CHANNELS 3 Xrotation Yrotation Zrotation
							JOINT newVegas:Right_CapeA1
							{
								OFFSET 0.000000 -8.688499 0.000000
								CHANNELS 3 Xrotation Yrotation Zrotation
								End Site
								{
									OFFSET 0.000000 8.688499 0.000000
								}
							}
						}
						JOINT newVegas:Right_CapeB
						{
							OFFSET -26.118187 -8.608795 -7.079266
							CHANNELS 3 Xrotation Yrotation Zrotation
							JOINT newVegas:Right_CapeB1
							{
								OFFSET 0.000000 -8.688499 0.000000
								CHANNELS 3 Xrotation Yrotation Zrotation
								End Site
								{
									OFFSET 0.000000 8.688499 0.000000
								}
							}
						}
					}
				}
				JOINT newVegas:Left_Collar
				{
					OFFSET 18.625099 8.655502 8.828100
					CHANNELS 3 Xrotation Yrotation Zrotation
					JOINT newVegas:Left_Collar1
					{
						OFFSET 14.783401 10.540405 -1.259500
						CHANNELS 3 Xrotation Yrotation Zrotation
						End Site
						{
							OFFSET 0.000000 18.199875 0.000000
						}
					}
				}
				JOINT newVegas:Collar_Back
				{
					OFFSET 0.000000 15.630707 -20.132601
					CHANNELS 3 Xrotation Yrotation Zrotation
					End Site
					{
						OFFSET 0.000000 22.523010 0.000000
					}
				}
				JOINT newVegas:Left_Peck
				{
					OFFSET 17.239599 -5.132599 25.482599
					CHANNELS 3 Xrotation Yrotation Zrotation
					End Site
					{
						OFFSET 0.000000 22.523010 0.000000
					}
				}
				JOINT newVegas:Right_Peck
				{
					OFFSET -17.239599 -5.132202 25.482599
					CHANNELS 3 Xrotation Yrotation Zrotation
					End Site
					{
						OFFSET 0.000000 22.523010 0.000000
					}
				}
				JOINT newVegas:Right_Collar
				{
					OFFSET -18.625099 8.655792 8.828100
					CHANNELS 3 Xrotation Yrotation Zrotation
					JOINT newVegas:Right_Collar1
					{
						OFFSET -14.783401 10.539993 -1.259500
						CHANNELS 3 Xrotation Yrotation Zrotation
						End Site
						{
							OFFSET 0.000000 18.199631 0.000000
						}
					}
				}
			}
		}
		JOINT newVegas:Belly
		{
			OFFSET 0.000000 -6.540398 9.014299
			CHANNELS 3 Xrotation Yrotation Zrotation
			End Site
			{
				OFFSET 0.000000 11.566666 0.000000
			}
		}
	}
	JOINT newVegas:ElvisFacialAnim_Joint
	{
		OFFSET 1.000000 -95.330101 -8.825800
		CHANNELS 3 Xrotation Yrotation Zrotation
		End Site
		{
			OFFSET 0.000000 35.315800 0.000000
		}
	}
}
MOTION
Frames: 4
Frame Time: 0.033333
-0.627879 69.500465 2.800108 16.408660 3.837578 5.769645 0.000001 0.000000 0.000000 16.371791 7.989329 -8.107061 38.479052 14.401806 -8.199353 -26.837121 15.257468 -16.384394 -0.000000 0.000002 -0.000000 0.000002 -0.000000 0.000001 -93.944860 -0.425088 1.100409 50.257676 -7.710366 1.262435 18.852338 -30.188261 -14.020387 -0.000000 -0.000001 -0.000000 -0.000001 0.000000 -0.000001 10.957598 -14.177797 3.612315 2.869500 -4.089045 0.126405 2.861631 -4.312291 0.311449 -0.302676 0.895516 -1.785485 -0.302673 0.895508 -1.785481 0.000002 -0.000001 0.000001 -0.302604 0.895518 -1.785486 -0.302756 0.895517 -1.785482 0.000000 0.000001 0.000000 0.000002 -0.000001 0.000001 2.870342 -11.957088 6.152306 -33.803696 -70.877577 -6.927850 -0.000122 -94.709541 -0.000112 15.904408 -20.838176 11.426095 -14.374000 -24.771114 -3.357596 9.920370 43.709085 4.994169 0.000002 -0.000003 0.000000 0.614958 5.226347 -14.494952 0.212947 1.566690 -15.479601 -0.000002 -0.000001 0.000000 1.835607 6.790011 -33.465243 1.023779 3.310330 -34.362467 0.000001 -0.000002 -0.000002 2.755027 7.481329 -44.479886 1.527765 3.946329 -42.313196 -0.000001 0.000001 -0.000000 3.725315 7.962798 -54.775156 2.215596 4.587658 -51.537992 -0.000002 -0.000003 -0.000001 -0.000001 -0.000000 0.000000 -0.000001 -0.000000 0.000000 -0.000001 0.000000 -0.000000 -0.000000 0.000000 0.000000 -0.000000 -0.000001 0.000001 -0.000000 0.000000 0.000000 -0.000000 -0.000001 0.000000 1.124706 1.331168 15.116527 -9.590828 -31.513202 40.008393 0.000000 10.721308 0.000010 16.783631 19.030273 -20.612602 -6.403270 8.752676 -2.624918 8.233901 -29.439082 -1.700695 0.000004 -0.000003 0.000001 -1.791210 6.483436 11.714590 0.189249 -1.315441 16.372486 -0.000001 0.000001 -0.000000 -1.298707 1.214695 17.888084 0.309497 -1.671020 20.984592 0.000002 -0.000000 -0.000001 -0.118577 -2.982234 25.427674 0.400601 -1.891412 23.914996 -0.000002 0.000002 -0.000001 -0.073842 -3.615784 32.437265 0.622456 -2.327927 29.936135 -0.000002 0.000002 -0.000000 0.000003 0.000003 0.000003 0.000003 0.000005 0.000003 0.000003 0.000003 0.000004 0.000001 -0.000002 -0.000001 0.000001 -0.000001 -0.000002 0.000001 -0.000002 -0.000001 0.000001 -0.000001 -0.000002 0.000003 -0.000001 0.000001 0.000003 -0.000001 0.000001 0.000003 -0.000001 0.000001 0.000003 -0.000001 0.000001 0.000003 -0.000001 0.000001 0.000003 -0.000001 0.000001 0.000003 -0.000001 0.000001 0.000001 -0.000001 0.000000 0.000001 0.000000 0.000000 
1.024436 69.273468 5.843542 18.552549 0.509462 5.962202 0.000001 -0.000000 0.000000 9.828135 11.660158 -9.318038 41.849160 6.648928 -5.613613 -15.251852 16.164341 -17.254195 0.000002 0.000002 -0.000001 -0.000000 0.000000 0.000003 -96.733845 -3.276082 1.025894 55.117970 -4.626120 1.142811 15.218167 -28.592050 -13.999352 -0.000000 -0.000000 -0.000000 0.000001 0.000000 0.000000 11.194379 -14.212457 4.519564 2.980074 -4.096986 0.429294 2.966978 -4.278522 0.612907 -0.221327 1.278627 -1.236908 -0.221299 1.278618 -1.236903 0.000003 0.000002 -0.000001 -0.221218 1.278619 -1.236912 -0.221475 1.278625 -1.236905 -0.000003 0.000000 -0.000000 0.000003 0.000002 -0.000001 2.350699 -11.391541 4.950628 -56.998642 -72.729091 -30.842754 -0.000005 -83.384254 0.000006 23.312563 -23.011329 15.219885 -15.144179 -24.950464 -2.532542 9.637001 41.188954 4.868521 0.000002 -0.000000 -0.000005 0.555600 4.987236 -12.172755 0.194443 1.498297 -14.787860 -0.000000 0.000002 0.000000 1.610819 6.567950 -30.594678 0.942717 3.188722 -32.932474 0.000000 -0.000003 -0.000002 2.559142 7.354701 -42.300386 1.334374 3.723312 -39.422223 0.000001 -0.000002 0.000002 3.453808 7.846440 -52.082644 1.911353 4.329331 -47.625683 0.000001 -0.000005 -0.000002 -0.000001 -0.000002 -0.000000 -0.000001 -0.000002 -0.000000 -0.000002 -0.000002 -0.000000 -0.000001 -0.000002 0.000001 -0.000001 -0.000003 0.000002 -0.000001 -0.000002 0.000001 -0.000001 -0.000002 0.000000 1.013950 3.474781 15.544474 -10.534514 -31.454056 38.466714 0.000003 13.456698 0.000001 14.670819 15.875643 -23.825279 -6.692405 8.883024 -1.257316 8.552256 -29.953696 -1.608873 0.000002 -0.000003 -0.000004 -1.348425 5.862504 9.696587 0.173960 -1.262242 15.692768 -0.000001 -0.000002 -0.000001 -1.092937 0.855405 16.810161 0.307925 -1.666925 20.930742 0.000000 -0.000003 -0.000001 -0.042425 -3.100200 24.601908 0.410979 -1.914619 24.227318 -0.000003 -0.000001 -0.000001 0.026794 -3.750121 31.844709 0.557068 -2.210561 28.284483 0.000002 0.000003 -0.000001 -0.000000 -0.000002 -0.000003 -0.000000 -0.000002 -0.000001 -0.000000 -0.000002 -0.000003 0.000001 0.000000 -0.000000 0.000001 0.000001 -0.000001 0.000001 0.000000 -0.000000 0.000001 0.000001 -0.000000 -0.000003 -0.000003 0.000001 -0.000003 -0.000003 0.000001 -0.000003 -0.000003 0.000001 -0.000003 -0.000003 0.000001 -0.000003 -0.000003 0.000001 -0.000003 -0.000003 0.000001 -0.000003 -0.000003 0.000001 -0.000001 0.000001 -0.000000 0.000001 -0.000000 0.000000 
2.606993 68.929825 8.752890 20.715107 -2.981465 6.044421 -0.000001 -0.000000 -0.000000 4.889906 15.493792 -12.140380 39.924218 -1.098345 -2.620444 0.816184 16.462592 -16.989066 -0.000000 0.000000 -0.000002 0.000000 -0.000001 0.000003 -99.100273 -4.817931 1.597455 59.082919 -2.893053 1.169177 12.513240 -26.954307 -13.342242 -0.000000 0.000003 -0.000000 0.000001 0.000000 -0.000001 11.476366 -14.296077 5.645294 3.095590 -4.120639 0.778684 3.075417 -4.256564 0.961269 -0.143384 1.702942 -0.868567 -0.143378 1.702944 -0.868566 -0.000000 -0.000000 -0.000000 -0.143326 1.702961 -0.868574 -0.143498 1.702920 -0.868558 -0.000003 -0.000001 -0.000000 -0.000000 -0.000000 -0.000000 2.031107 -11.207276 3.955644 -71.235588 -71.624984 -45.237190 -0.000063 -76.762215 -0.000044 27.202391 -20.304880 17.046923 -16.032259 -25.270641 -1.528422 9.298425 38.433457 4.756358 0.000001 0.000004 -0.000002 0.499613 4.715073 -9.525486 0.171656 1.409188 -13.889753 0.000001 0.000001 -0.000000 1.370531 6.302387 -27.336463 0.851133 3.042867 -31.247350 0.000000 0.000001 0.000003 2.339477 7.198299 -39.812367 1.126751 3.455846 -36.107081 -0.000001 0.000001 -0.000003 3.152951 7.698609 -49.022023 1.587297 4.010603 -43.171430 0.000001 -0.000003 -0.000001 0.000000 -0.000000 -0.000001 0.000000 -0.000000 -0.000001 -0.000001 -0.000000 -0.000001 0.000000 0.000000 -0.000000 0.000000 -0.000001 -0.000000 0.000000 0.000000 -0.000000 -0.000002 0.000000 -0.000001 0.876339 5.682326 16.088273 -11.572485 -31.383493 36.650781 -0.000001 16.306522 -0.000003 11.918639 12.995416 -27.491744 -6.968515 9.007314 0.129009 8.875561 -30.480542 -1.511051 0.000002 -0.000003 -0.000003 -0.916870 5.228613 7.400602 0.155323 -1.193985 14.823799 -0.000001 0.000001 0.000003 -0.886642 0.503689 15.472088 0.301315 -1.649555 20.702419 0.000001 -0.000001 -0.000002 0.027004 -3.203695 23.520211 0.415876 -1.925461 24.373576 -0.000000 0.000001 -0.000001 0.120154 -3.871399 31.001457 0.480627 -2.062337 26.234600 -0.000002 0.000002 -0.000001 0.000002 -0.000000 -0.000002 -0.000002 -0.000001 0.000000 0.000002 -0.000000 -0.000002 0.000001 0.000001 -0.000000 0.000001 0.000002 -0.000000 0.000001 0.000001 -0.000000 0.000001 0.000002 -0.000000 0.000002 -0.000001 -0.000000 0.000002 -0.000001 -0.000000 0.000002 -0.000001 -0.000000 0.000002 -0.000001 -0.000000 0.000002 -0.000001 -0.000000 0.000002 -0.000001 -0.000000 0.000002 -0.000001 -0.000000 0.000001 0.000001 -0.000000 -0.000001 -0.000000 -0.000000 
4.140459 68.488503 11.555315 22.906001 -6.599966 6.119814 0.000002 0.000001 -0.000000 2.063036 18.641558 -15.427490 37.857577 -7.112322 0.108005 13.317561 16.678569 -19.439144 -0.000000 0.000000 -0.000001 0.000004 0.000000 0.000001 -101.160784 -5.815899 2.492630 62.369490 -1.640340 1.332360 10.337898 -25.396680 -12.402248 -0.000000 -0.000000 0.000000 -0.000001 0.000000 -0.000000 11.791010 -14.384373 6.916246 3.214676 -4.152813 1.157222 3.186236 -4.240893 1.338923 -0.087633 2.151141 -0.749451 -0.087638 2.151140 -0.749444 0.000003 0.000002 -0.000002 -0.087570 2.151155 -0.749455 -0.087703 2.151123 -0.749442 -0.000000 -0.000001 0.000000 0.000003 0.000002 -0.000002 1.843838 -11.317010 3.077438 -76.972619 -69.883702 -50.559898 -0.000006 -73.656186 -0.000017 28.169425 -14.611810 17.028030 -17.008334 -25.699782 -0.391248 8.920626 35.500103 4.645864 -0.000000 -0.000002 -0.000005 0.453105 4.418433 -6.631879 0.146677 1.304050 -12.834560 0.000002 -0.000002 0.000000 1.127421 5.997534 -23.785497 0.754099 2.877104 -29.368618 0.000000 0.000000 -0.000002 2.107166 7.015628 -37.090963 0.917211 3.149051 -32.470839 0.000002 -0.000001 -0.000000 2.835095 7.518807 -45.683129 1.262838 3.634739 -38.307632 -0.000000 -0.000003 -0.000001 0.000001 -0.000000 -0.000000 0.000001 -0.000000 -0.000000 -0.000000 -0.000000 0.000000 -0.000001 0.000004 0.000001 -0.000001 0.000003 0.000001 -0.000001 0.000004 0.000001 -0.000001 0.000003 0.000002 0.697283 7.914641 16.671517 -12.666100 -31.276160 34.707282 0.000001 19.213310 0.000009 8.639055 10.511467 -31.443763 -7.227720 9.122586 1.525147 9.203128 -31.014800 -1.406978 -0.000001 -0.000002 -0.000003 -0.522698 4.577367 4.932751 0.135427 -1.116087 13.836392 0.000001 -0.000000 0.000004 -0.690907 0.152455 13.971310 0.291668 -1.623823 20.364837 0.000001 -0.000000 -0.000000 0.089035 -3.299668 22.278159 0.417303 -1.928598 24.415869 0.000001 -0.000001 -0.000002 0.205919 -3.986402 30.001100 0.401281 -1.892948 23.935775 0.000001 0.000003 0.000001 0.000000 -0.000002 -0.000000 -0.000002 -0.000002 -0.000001 0.000000 -0.000002 -0.000001 -0.000001 0.000001 0.000002 -0.000001 0.000002 0.000001 -0.000001 0.000001 0.000002 -0.000001 0.000002 0.000001 -0.000000 0.000002 -0.000002 -0.000000 0.000002 -0.000002 -0.000000 0.000002 -0.000002 -0.000000 0.000002 -0.000002 -0.000000 0.000002 -0.000002 -0.000000 0.000002 -0.000002 -0.000000 0.000002 -0.000002 0.000000 -0.000003 0.000002 0.000002 0.000001 -0.000000 
